<svg width="104" height="91" viewBox="0 0 104 91" fill="none" xmlns="http://www.w3.org/2000/svg">
<g clip-path="url(#clip0_37_149)">
<path d="M94.174 84.5H9.74214C4.35149 84.5 0 80.145 0 74.75V16.25C0 10.855 4.35149 6.5 9.74214 6.5H94.174C99.5646 6.5 103.916 10.855 103.916 16.25V74.75C103.916 80.145 99.5646 84.5 94.174 84.5ZM9.74214 13C7.9236 13 6.49476 14.43 6.49476 16.25V74.75C6.49476 76.57 7.9236 78 9.74214 78H94.174C95.9925 78 97.4214 76.57 97.4214 74.75V16.25C97.4214 14.43 95.9925 13 94.174 13H9.74214Z" fill="#424242"/>
<path d="M51.9579 58.2408C47.4116 58.2408 43.255 56.4208 40.1375 53.1058L6.04 16.8358C4.806 15.5358 4.87095 13.4558 6.1699 12.2208C7.46885 10.9858 9.54717 11.0508 10.7812 12.3508L44.8787 48.6208C48.5807 52.5858 55.3352 52.5858 59.0372 48.6208L93.1347 12.4158C94.3687 11.1158 96.447 11.0508 97.746 12.2858C99.0449 13.5208 99.1099 15.6008 97.8759 16.9008L63.7784 53.1708C60.6609 56.4858 56.5043 58.3058 51.9579 58.3058V58.2408Z" fill="#424242"/>
<g clip-path="url(#clip1_37_149)">
<path d="M69.7799 37.1696C68.1847 33.8931 63.5893 31.2123 58.244 32.7731C55.6897 33.5115 53.4611 35.095 51.9224 37.2649C50.3837 35.095 48.1551 33.5115 45.6008 32.7731C40.2436 31.2361 35.6602 33.8931 34.0649 37.1696C31.8267 41.7567 32.7553 46.9158 36.8268 52.5037C40.0174 56.8764 44.577 61.3086 51.1962 66.4557C51.4054 66.619 51.6631 66.7077 51.9284 66.7077C52.1936 66.7077 52.4513 66.619 52.6605 66.4557C59.2678 61.3205 63.8393 56.924 67.0299 52.5037C71.0895 46.9158 72.0181 41.7567 69.7799 37.1696Z" fill="#EF7251"/>
</g>
</g>
<defs>
<clipPath id="clip0_37_149">
<rect width="103.916" height="91" fill="white"/>
</clipPath>
<clipPath id="clip1_37_149">
<rect width="42.8581" height="42.8927" fill="white" transform="translate(30.5291 24.0903)"/>
</clipPath>
</defs>
</svg>
