<svg width="82" height="84" viewBox="0 0 82 84" fill="none" xmlns="http://www.w3.org/2000/svg">
<path d="M57.5269 81V69.822C57.673 67.9648 57.4221 66.0978 56.7908 64.3451C56.1596 62.5924 55.1625 60.9941 53.8658 59.6566C66.0954 58.2934 78.9482 53.6586 78.9482 32.3931C78.9472 26.9553 76.8555 21.7261 73.106 17.7877C74.8815 13.0302 74.7559 7.77166 72.7555 3.10435C72.7555 3.10435 68.1596 1.74118 57.5269 8.86863C48.6001 6.44928 39.1902 6.44928 30.2634 8.86863C19.6306 1.74118 15.0348 3.10435 15.0348 3.10435C13.0343 7.77166 12.9088 13.0302 14.6843 17.7877C10.9068 21.7553 8.81297 27.0318 8.8421 32.51C8.8421 53.6197 21.6949 58.2545 33.9245 59.7734C32.6431 61.0975 31.6549 62.6766 31.0241 64.4079C30.3933 66.1392 30.1341 67.9839 30.2634 69.822V81" stroke="#424242" stroke-width="5.84217" stroke-linecap="round" stroke-linejoin="round"/>
<path d="M30.2635 73.2107C18.5791 77.0003 8.84217 73.2107 3 61.5264" stroke="#424242" stroke-width="5.84217" stroke-linecap="round" stroke-linejoin="round"/>
</svg>
