<svg width="78" height="78" viewBox="0 0 78 78" fill="none" xmlns="http://www.w3.org/2000/svg">
<path d="M71.7308 0H6.26925C2.808 0 0 2.808 0 6.26925V71.7308C0 75.192 2.808 78 6.26925 78H71.7308C75.192 78 78 75.192 78 71.7308V6.26925C78 2.808 75.192 0 71.7308 0ZM71.7308 71.76C28.0703 71.7502 6.24 71.7405 6.24 71.7308C6.24975 28.0703 6.2595 6.24 6.26925 6.24C49.9297 6.24975 71.76 6.2595 71.76 6.26925C71.7502 49.9297 71.7405 71.76 71.7308 71.76ZM11.5635 29.2402H23.1367V66.4658H11.5635V29.2402ZM17.355 24.1508C21.0502 24.1508 24.063 21.1477 24.063 17.4427C24.063 16.5618 23.8895 15.6896 23.5524 14.8757C23.2153 14.0619 22.7212 13.3224 22.0983 12.6995C21.4754 12.0766 20.7359 11.5825 19.922 11.2454C19.1082 10.9083 18.2359 10.7347 17.355 10.7347C16.4741 10.7347 15.6018 10.9083 14.788 11.2454C13.9741 11.5825 13.2346 12.0766 12.6117 12.6995C11.9888 13.3224 11.4947 14.0619 11.1576 14.8757C10.8205 15.6896 10.647 16.5618 10.647 17.4427C10.6372 21.1477 13.6402 24.1508 17.355 24.1508ZM41.9542 48.048C41.9542 43.1925 42.8805 38.493 48.8962 38.493C54.8242 38.493 54.912 44.0407 54.912 48.36V66.4658H66.4755V46.0492C66.4755 36.0262 64.311 28.314 52.6012 28.314C46.9755 28.314 43.2023 31.4048 41.652 34.3298H41.496V29.2402H30.3908V66.4658H41.9542V48.048Z" fill="#424242"/>
</svg>
